<?xml version="1.0" encoding="UTF-8" standalone="no"?>
<svg
   width="64mm"
   height="22.675777mm"
   viewBox="0 0 63.999997 22.675777"
   version="1.1"
   id="svg8"
   inkscape:version="1.4.3 (0d15f75, 2025-12-25)"
   sodipodi:docname="digin-full.svg"
   inkscape:export-filename="others/digin-full.png"
   inkscape:export-xdpi="90"
   inkscape:export-ydpi="90"
   xml:space="preserve"
   xmlns:inkscape="http://www.inkscape.org/namespaces/inkscape"
   xmlns:sodipodi="http://sodipodi.sourceforge.net/DTD/sodipodi-0.dtd"
   xmlns="http://www.w3.org/2000/svg"
   xmlns:svg="http://www.w3.org/2000/svg"
   xmlns:rdf="http://www.w3.org/1999/02/22-rdf-syntax-ns#"
   xmlns:cc="http://creativecommons.org/ns#"
   xmlns:dc="http://purl.org/dc/elements/1.1/"><defs
     id="defs2" /><sodipodi:namedview
     id="base"
     pagecolor="#ffffff"
     bordercolor="#666666"
     borderopacity="1.0"
     inkscape:pageopacity="0.0"
     inkscape:pageshadow="2"
     inkscape:zoom="1.8371619"
     inkscape:cx="261.54472"
     inkscape:cy="77.293134"
     inkscape:document-units="mm"
     inkscape:current-layer="layer1"
     inkscape:document-rotation="0"
     showgrid="false"
     inkscape:window-width="1800"
     inkscape:window-height="1101"
     inkscape:window-x="0"
     inkscape:window-y="39"
     inkscape:window-maximized="0"
     inkscape:snap-global="false"
     inkscape:showpageshadow="0"
     inkscape:pagecheckerboard="0"
     inkscape:deskcolor="#d1d1d1" /><metadata
     id="metadata5"><rdf:RDF><cc:Work
         rdf:about=""><dc:format>image/svg+xml</dc:format><dc:type
           rdf:resource="http://purl.org/dc/dcmitype/StillImage" /></cc:Work></rdf:RDF></metadata><g
     inkscape:label="Layer 1"
     inkscape:groupmode="layer"
     id="layer1"
     transform="translate(-101.88489,-159.65092)"><path
       style="font-weight:600;font-size:19.4913px;line-height:5.71033px;font-family:'Source Sans 3';-inkscape-font-specification:'Source Sans 3 Semi-Bold';letter-spacing:0px;word-spacing:0px;fill:#333333;stroke-width:0.456826px"
       d="m 124.76495,177.58307 h 3.52792 c 3.78132,0 6.08129,-2.20252 6.08129,-6.43213 0,-4.21012 -2.29997,-6.31518 -6.19823,-6.31518 h -3.41098 z m 2.26099,-1.83218 v -9.08295 H 128.02 c 2.57285,0 4.0347,1.36439 4.0347,4.483 0,3.1381 -1.46185,4.59995 -4.0347,4.59995 z m 9.72616,1.83218 h 2.2415 v -9.57023 h -2.2415 z m 1.111,-11.24648 c 0.79915,0 1.3449,-0.50678 1.3449,-1.28643 0,-0.76016 -0.54575,-1.26693 -1.3449,-1.26693 -0.79914,0 -1.3449,0.50677 -1.3449,1.26693 0,0.77965 0.54576,1.28643 1.3449,1.28643 z m 7.32872,15.47609 c 3.1186,0 5.10672,-1.48134 5.10672,-3.37199 0,-1.65676 -1.20846,-2.35845 -3.50844,-2.35845 h -1.69574 c -1.16948,0 -1.55931,-0.33135 -1.55931,-0.87711 0,-0.42881 0.17543,-0.6627 0.4678,-0.91609 0.4288,0.17542 0.8966,0.25339 1.30591,0.25339 2.0271,0 3.62538,-1.1305 3.62538,-3.23556 0,-0.6627 -0.23389,-1.16948 -0.58473,-1.5593 v -0.078 h 1.7932 v -1.65676 h -3.43047 c -0.38983,-0.13644 -0.87711,-0.2339 -1.40338,-0.2339 -2.0076,0 -3.78131,1.22796 -3.78131,3.43047 0,1.1305 0.60423,2.04659 1.24744,2.53387 v 0.078 c -0.54575,0.38982 -1.05253,1.03304 -1.05253,1.77371 0,0.77965 0.37034,1.28642 0.85762,1.59828 v 0.078 c -0.87711,0.54575 -1.36439,1.24744 -1.36439,2.04658 0,1.67626 1.69574,2.49489 3.97623,2.49489 z m 0.11694,-8.67363 c -0.93558,0 -1.67625,-0.70168 -1.67625,-1.92964 0,-1.20846 0.74067,-1.89065 1.67625,-1.89065 0.93559,0 1.65676,0.68219 1.65676,1.89065 0,1.22796 -0.74067,1.92964 -1.65676,1.92964 z m 0.2339,7.21178 c -1.52032,0 -2.45591,-0.50677 -2.45591,-1.36439 0,-0.4483 0.2339,-0.87711 0.74067,-1.26693 0.37034,0.0974 0.77966,0.13644 1.30592,0.13644 h 1.30592 c 1.09151,0 1.69574,0.2144 1.69574,0.95507 0,0.81864 -1.05253,1.53981 -2.59234,1.53981 z m 6.64654,-2.76776 h 2.26099 v -12.74731 h -2.26099 z m 5.30163,0 h 2.2415 v -6.68552 c 0.79914,-0.77965 1.3449,-1.18897 2.18302,-1.18897 1.05253,0 1.50083,0.58474 1.50083,2.16354 v 5.71095 h 2.2415 v -6.00332 c 0,-2.41692 -0.8966,-3.80081 -2.94318,-3.80081 -1.30592,0 -2.28049,0.6822 -3.1381,1.52033 h -0.078 l -0.15593,-1.28643 h -1.85167 z"
       id="text1"
       aria-label="DigInThere"
       sodipodi:nodetypes="csssccccsssccccccssssscsssscsscccccssccsccsccssssssscssssccccccccssccssccccc" /><path
       style="font-size:20.5856px;line-height:6.03092px;letter-spacing:0px;word-spacing:0px;fill:none;fill-rule:evenodd;stroke:#846eff;stroke-width:2.59915;stroke-linecap:round;stroke-linejoin:round;stroke-dasharray:none;stroke-opacity:1"
       d="m 103.18446,181.02712 0.12181,-20.07674 17.209,11.44697 -13.70157,7.06705 0.0823,-11.78733 6.54669,4.29937 -2.75684,1.54282"
       id="path2749"
       sodipodi:nodetypes="ccccccc" /></g></svg>
