<?xml version="1.0" encoding="UTF-8" standalone="no"?>
<svg
   width="230"
   height="86"
   viewBox="0 0 60.854166 22.754167"
   version="1.1"
   id="svg8"
   inkscape:version="1.4.3 (0d15f75, 2025-12-25)"
   sodipodi:docname="digin-full.svg"
   inkscape:export-filename="others/digin-full.png"
   inkscape:export-xdpi="90"
   inkscape:export-ydpi="90"
   xml:space="preserve"
   xmlns:inkscape="http://www.inkscape.org/namespaces/inkscape"
   xmlns:sodipodi="http://sodipodi.sourceforge.net/DTD/sodipodi-0.dtd"
   xmlns="http://www.w3.org/2000/svg"
   xmlns:svg="http://www.w3.org/2000/svg"
   xmlns:rdf="http://www.w3.org/1999/02/22-rdf-syntax-ns#"
   xmlns:cc="http://creativecommons.org/ns#"
   xmlns:dc="http://purl.org/dc/elements/1.1/"><defs
     id="defs2" /><sodipodi:namedview
     id="base"
     pagecolor="#ffffff"
     bordercolor="#666666"
     borderopacity="1.0"
     inkscape:pageopacity="0.0"
     inkscape:pageshadow="2"
     inkscape:zoom="1.7159344"
     inkscape:cx="92.07811"
     inkscape:cy="-21.562595"
     inkscape:document-units="mm"
     inkscape:current-layer="layer1"
     inkscape:document-rotation="0"
     showgrid="false"
     inkscape:window-width="1800"
     inkscape:window-height="1101"
     inkscape:window-x="0"
     inkscape:window-y="39"
     inkscape:window-maximized="0"
     inkscape:snap-global="false"
     inkscape:showpageshadow="0"
     inkscape:pagecheckerboard="0"
     inkscape:deskcolor="#d1d1d1" /><metadata
     id="metadata5"><rdf:RDF><cc:Work
         rdf:about=""><dc:format>image/svg+xml</dc:format><dc:type
           rdf:resource="http://purl.org/dc/dcmitype/StillImage" /></cc:Work></rdf:RDF></metadata><g
     inkscape:label="Layer 1"
     inkscape:groupmode="layer"
     id="layer1"
     transform="translate(-101.88489,-159.65092)"><path
       style="font-size:20.5856px;line-height:6.03092px;letter-spacing:0px;word-spacing:0px;fill:none;fill-rule:evenodd;stroke:#846eff;stroke-width:2.59915;stroke-linecap:round;stroke-linejoin:round;stroke-dasharray:none;stroke-opacity:1"
       d="m 103.25766,181.06328 0.0258,-20.07709 17.26355,11.36454 -13.66762,7.1325 0.0259,-11.78759 6.56717,4.26801 -2.74943,1.55599"
       id="path2749"
       sodipodi:nodetypes="ccccccc" /><g
       id="g9"
       style="fill:#333333;fill-opacity:1"
       transform="translate(1.3418587)"><g
         id="g10"
         transform="translate(1.3267309)"><path
           style="font-size:16.9333px;font-family:Kronika;-inkscape-font-specification:Kronika;fill:#333333;fill-opacity:1;stroke-width:3.664;stroke-linecap:round"
           d="m 160.01606,175.62106 q 0,0.4961 -0.39688,0.79375 -0.35553,0.28112 -0.86816,0.28112 -1.4304,0 -1.4304,-3.13365 0,-0.52917 0.0827,-1.59577 0.0827,-1.0666 0.0827,-1.59576 0,-0.68626 -0.3886,-0.68626 -2.62929,0 -2.90215,1.62057 -0.0827,0.48782 -0.0827,1.39732 0,0.678 0.0331,1.66191 l 0.0331,1.31465 q 0.0165,0.49609 -0.38861,0.81029 -0.3638,0.28111 -0.87643,0.28111 -0.93431,0 -1.21543,-0.89296 -0.14882,-0.45475 -0.14882,-1.59577 0,-0.98392 0.0909,-2.94348 0.0992,-1.95957 0.0992,-2.94349 0,-0.49609 0.40514,-0.79374 0.3638,-0.27285 0.86816,-0.27285 1.15755,0 1.28157,1.38905 1.33119,-1.21542 2.80293,-1.21542 2.00091,0 2.55488,1.7942 0.24804,0.79375 0.24804,3.25768 0,0.51262 0.0579,1.53788 0.0579,1.01699 0.0579,1.52962 z"
           id="path8" /><path
           style="font-size:16.9333px;font-family:Kronika;-inkscape-font-specification:Kronika;fill:#333333;fill-opacity:1;stroke-width:3.664;stroke-linecap:round"
           d="m 150.42493,168.79152 v 3.68762 q 0,0.76068 -0.008,1.51308 l -0.0165,1.50482 q -0.008,0.5209 -0.38033,0.82682 -0.339,0.28112 -0.87643,0.28112 -1.30638,0 -1.30638,-2.28203 0,-0.30592 0.0413,-0.92604 0.0413,-0.58704 0.0413,-0.91777 l -0.008,-2.36471 q 0,-1.80247 0.3638,-2.10839 0.36381,-0.31419 0.90124,-0.31419 0.51263,0 0.86816,0.28112 0.38034,0.31419 0.38034,0.81855 z"
           id="path7" /><path
           style="font-size:16.9333px;font-family:Kronika;-inkscape-font-specification:Kronika;fill:#333333;fill-opacity:1;stroke-width:3.664;stroke-linecap:round"
           d="m 150.54068,165.19485 q 0,0.56223 -0.44648,0.90123 -0.41341,0.32246 -0.98392,0.32246 -0.57877,0 -0.98391,-0.32246 -0.45476,-0.34726 -0.45476,-0.90123 0,-0.55397 0.45476,-0.90124 0.40514,-0.32246 0.98391,-0.32246 0.57051,0 0.98392,0.32246 0.44648,0.339 0.44648,0.90124 z"
           id="path6" /></g></g><g
       id="g8"
       transform="translate(0.41492434)"><path
         id="path5"
         style="font-size:16.9333px;font-family:Kronika;-inkscape-font-specification:Kronika;fill:#333333;stroke-width:3.664;stroke-linecap:round"
         d="m 145.38198,167.60909 c -0.34727,0 -0.64217,0.10197 -0.8847,0.30593 -0.0662,0.0496 -0.1213,0.14331 -0.16537,0.28111 -0.38585,-0.23702 -0.88195,-0.35553 -1.48828,-0.35553 -1.59301,0 -2.86908,0.36932 -3.82819,1.10794 -1.06936,0.83234 -1.56821,2.02297 -1.49655,3.57188 0.0551,1.26228 0.49058,2.28479 1.30638,3.06751 0.82131,0.78273 1.86587,1.17409 3.13366,1.17409 1.00872,0 1.79696,-0.30316 2.36471,-0.9095 l 0.008,0.1819 c 0.0992,1.97334 -0.68351,2.96002 -2.34817,2.96002 -0.29766,0 -0.72761,-0.0937 -1.28985,-0.28112 -0.56223,-0.1874 -0.98942,-0.28112 -1.28157,-0.28112 -0.28112,0 -0.52366,0.0772 -0.72761,0.23151 -0.22046,0.17088 -0.32519,0.39137 -0.31419,0.66146 0.0331,0.5898 0.47681,1.03904 1.33119,1.34772 0.62838,0.226 1.30913,0.339 2.04225,0.339 1.66467,0 2.87735,-0.30317 3.63802,-0.90951 0.84887,-0.67248 1.27331,-1.81626 1.27331,-3.43131 0,-0.226 -0.008,-0.55948 -0.0248,-1.00046 -0.011,-0.30314 -0.0165,-0.46575 -0.0165,-0.48782 l 0.0165,-1.27331 c 0.005,-0.42443 0.008,-0.9288 0.008,-1.51308 v -3.68763 h 5.2e-4 c 0,-0.33624 -0.12678,-0.60909 -0.38034,-0.81856 -0.23702,-0.18741 -0.52917,-0.28112 -0.87643,-0.28112 z m -2.58021,2.11667 c 0.38585,0 0.77446,0.0937 1.16582,0.28112 0.12127,0.24253 0.1819,0.52089 0.1819,0.83509 0,0.15984 -0.0248,0.37482 -0.0744,0.64492 -0.0498,0.28663 -0.0774,0.49058 -0.0827,0.61185 -0.0221,0.6339 -0.20946,1.2237 -0.56224,1.7694 -0.4079,0.62839 -0.90951,0.94258 -1.50482,0.94258 -1.20716,0 -1.84657,-0.76343 -1.91823,-2.2903 -0.0386,-0.87091 0.19844,-1.55443 0.71107,-2.05052 0.51263,-0.4961 1.20716,-0.74414 2.08359,-0.74414 z" /><path
         style="font-size:16.9333px;font-family:Kronika;-inkscape-font-specification:Kronika;fill:#333333;stroke-width:3.664;stroke-linecap:round"
         d="m 136.3855,168.79152 v 3.68762 q 0,0.76068 -0.008,1.51308 l -0.0165,1.50482 q -0.008,0.5209 -0.38034,0.82682 -0.33899,0.28112 -0.87643,0.28112 -1.30638,0 -1.30638,-2.28203 0,-0.30592 0.0413,-0.92604 0.0413,-0.58704 0.0413,-0.91777 l -0.008,-2.36471 q 0,-1.80247 0.3638,-2.10839 0.3638,-0.31419 0.90123,-0.31419 0.51263,0 0.86817,0.28112 0.38033,0.31419 0.38033,0.81855 z"
         id="path3" /><path
         style="font-size:16.9333px;font-family:Kronika;-inkscape-font-specification:Kronika;fill:#333333;stroke-width:3.664;stroke-linecap:round"
         d="m 136.50126,165.19485 q 0,0.56223 -0.44648,0.90123 -0.41341,0.32246 -0.98392,0.32246 -0.57878,0 -0.98392,-0.32246 -0.45475,-0.34726 -0.45475,-0.90123 0,-0.55397 0.45475,-0.90124 0.40514,-0.32246 0.98392,-0.32246 0.57051,0 0.98392,0.32246 0.44648,0.339 0.44648,0.90124 z"
         id="path2" /><path
         id="path1"
         style="font-size:16.9333px;font-family:Kronika;-inkscape-font-specification:Kronika;fill:#333333;stroke-width:3.664;stroke-linecap:round"
         d="m 131.24279,163.33442 c -0.62839,0 -0.94258,0.29765 -0.94258,0.89296 0,0.0827 0.006,0.20947 0.0165,0.38034 0.011,0.16537 0.0165,0.28939 0.0165,0.37207 v 3.16674 c -0.89848,-0.452 -1.72531,-0.678 -2.48047,-0.678 -1.37252,0 -2.49701,0.42994 -3.37343,1.28984 -0.87644,0.85438 -1.31465,1.96509 -1.31465,3.3321 0,1.37803 0.5016,2.50252 1.50482,3.37344 0.9536,0.82682 2.12769,1.24023 3.52226,1.24023 0.42443,0 0.8847,-0.10748 1.3808,-0.32246 0.54018,-0.23702 0.88745,-0.51263 1.04179,-0.82682 0.011,0.22049 0.0937,0.44373 0.24805,0.66973 0.17087,0.25356 0.36105,0.38033 0.57051,0.38033 0.31419,0 0.58979,-0.0965 0.82682,-0.28938 0.24253,-0.19292 0.3638,-0.44373 0.3638,-0.75241 l -0.0496,-10.58334 c -0.006,-0.4134 -0.113,-0.77721 -0.32246,-1.0914 -0.24804,-0.36932 -0.58429,-0.55397 -1.00872,-0.55397 z m -3.38998,6.25078 c 0.62288,0 1.44971,0.33073 2.48047,0.99218 v 2.76986 c -0.11575,0.30317 -0.42168,0.5898 -0.91777,0.8599 -0.46302,0.24804 -0.87093,0.37207 -1.2237,0.37207 -0.76068,0 -1.38631,-0.22324 -1.87689,-0.66973 -0.51262,-0.45751 -0.76894,-1.06385 -0.76894,-1.81901 0,-0.71658 0.20119,-1.30638 0.60358,-1.7694 0.42443,-0.49058 0.99219,-0.73587 1.70325,-0.73587 z" /></g></g></svg>
