<?xml version="1.0" encoding="UTF-8"?>
<svg width="159.47311mm" height="237.09526mm" viewBox="0 0 603 896" version="1.1" xmlns="http://www.w3.org/2000/svg">
  <defs>
    <!-- Mask to dim the glow inside the card -->
    <mask id="glowMask">
      <rect width="100%" height="100%" fill="white"/>
      <rect x="175" y="243" width="253" height="180" rx="12" fill="#333"/>
    </mask>
    <!-- Radial gradient for soft-edged glow -->
    <radialGradient id="cardGlowGrad" cx="50%" cy="50%" r="50%">
      <stop offset="40%" stop-color="#ffca28" stop-opacity="0.2"/>
      <stop offset="70%" stop-color="#ffca28" stop-opacity="0.08"/>
      <stop offset="100%" stop-color="#ffca28" stop-opacity="0"/>
    </radialGradient>
    <style>
      .wire { fill: none; stroke-linecap: round; stroke-linejoin: round; }
      .p { stroke: #846eff; }
      .g { stroke: #ffca28; }
      .d { stroke: #555; }
      .gr { stroke: #aaa; }

      @keyframes pulse {
        0%, 100% { transform: scale(0.99); opacity: 0.9; }
        50% { transform: scale(1.02); opacity: 1; }
      }
      .p1 { animation: pulse 2.2s ease-in-out infinite; transform-origin: center; }
      .p2 { animation: pulse 2.2s ease-in-out infinite 0.7s; transform-origin: center; }
      .p3 { animation: pulse 2.2s ease-in-out infinite 1.4s; transform-origin: center; }

      @keyframes burst {
        0%, 100% { opacity: 0.35; }
        50% { opacity: 0.7; }
      }
      .b { animation: burst 1.6s ease-in-out infinite; }
      .b1 { animation-delay: 0.2s; }
      .b2 { animation-delay: 0.4s; }
      .b3 { animation-delay: 0.6s; }
      .b4 { animation-delay: 0.8s; }
      .b5 { animation-delay: 1.0s; }
      .b6 { animation-delay: 1.2s; }

      @keyframes haloGlow {
        0%, 100% { opacity: 0.04; r: 90; }
        50% { opacity: 0.09; r: 98; }
      }
      @keyframes haloGlow2 {
        0%, 100% { opacity: 0.03; r: 110; }
        50% { opacity: 0.06; r: 120; }
      }
      @keyframes haloGlow3 {
        0%, 100% { opacity: 0.015; r: 135; }
        50% { opacity: 0.04; r: 145; }
      }
      .halo1 { animation: haloGlow 3s ease-in-out infinite; }
      .halo2 { animation: haloGlow2 3s ease-in-out infinite 0.5s; }
      .halo3 { animation: haloGlow3 3s ease-in-out infinite 1s; }

      @keyframes cardGlow {
        0%, 100% { opacity: 0.5; }
        50% { opacity: 0.8; }
      }
      @keyframes cardGlowOuter {
        0%, 100% { opacity: 0.06; }
        50% { opacity: 0.22; }
      }
      @keyframes cardGlowWide {
        0%, 100% { opacity: 0.03; }
        50% { opacity: 0.12; }
      }
      .cardGlow { animation: cardGlow 3s ease-in-out infinite 0.5s; }
      .cardGlowOuter { animation: cardGlowOuter 3s ease-in-out infinite 0.3s; }
      .cardGlowWide { animation: cardGlowWide 3s ease-in-out infinite 0.1s; }
    </style>
  </defs>

  <!-- ======================================== -->
  <!--  GIFT WITH HALO — top center             -->
  <!-- ======================================== -->

  <!-- (halo removed) -->

  <!-- ======================================== -->
  <!--  ATTENTION LINES — crowd through card    -->
  <!--  to gift. Solid purple below, solid gold -->
  <!--  above card as they reach the reward     -->
  <!-- ======================================== -->

  <!-- Solid attention lines -->
  <g>
    <line x1="72" y1="545" x2="265" y2="240" stroke="#846eff" stroke-width="2.5" stroke-linecap="round"/>
    <line x1="265" y1="240" x2="290" y2="85" stroke="#ffca28" stroke-width="2.5" stroke-linecap="round"/>

    <line x1="145" y1="530" x2="275" y2="240" stroke="#846eff" stroke-width="2.5" stroke-linecap="round"/>
    <line x1="275" y1="240" x2="293" y2="85" stroke="#ffca28" stroke-width="2.5" stroke-linecap="round"/>

    <line x1="240" y1="535" x2="288" y2="240" stroke="#846eff" stroke-width="2.5" stroke-linecap="round"/>
    <line x1="288" y1="240" x2="297" y2="85" stroke="#ffca28" stroke-width="2.5" stroke-linecap="round"/>

    <line x1="335" y1="525" x2="301" y2="240" stroke="#846eff" stroke-width="3" stroke-linecap="round"/>
    <line x1="301" y1="240" x2="301" y2="85" stroke="#ffca28" stroke-width="3" stroke-linecap="round"/>

    <line x1="420" y1="533" x2="314" y2="240" stroke="#846eff" stroke-width="2.5" stroke-linecap="round"/>
    <line x1="314" y1="240" x2="305" y2="85" stroke="#ffca28" stroke-width="2.5" stroke-linecap="round"/>

    <line x1="510" y1="540" x2="327" y2="240" stroke="#846eff" stroke-width="2.5" stroke-linecap="round"/>
    <line x1="327" y1="240" x2="309" y2="85" stroke="#ffca28" stroke-width="2.5" stroke-linecap="round"/>

    <line x1="545" y1="548" x2="337" y2="240" stroke="#846eff" stroke-width="2.5" stroke-linecap="round"/>
    <line x1="337" y1="240" x2="313" y2="85" stroke="#ffca28" stroke-width="2.5" stroke-linecap="round"/>
  </g>

  <!-- Gift box — on top of line endings -->
  <g class="wire g" stroke-width="5.5" transform="translate(266.5, 13.75) scale(0.75)">
    <!-- Box bottom -->
    <rect x="8" y="35" width="76" height="52" rx="5"/>
    <!-- Box lid -->
    <rect x="3" y="22" width="86" height="20" rx="5"/>
    <!-- Ribbon vertical -->
    <line x1="46" y1="22" x2="46" y2="87"/>
    <!-- Ribbon bow left -->
    <path d="M46,22 Q26,2 32,2 Q46,2 46,22"/>
    <!-- Ribbon bow right -->
    <path d="M46,22 Q66,2 60,2 Q46,2 46,22"/>
  </g>

  <!-- ======================================== -->
  <!--  CONTENT CARD — lit up by attention      -->
  <!-- ======================================== -->


  <!-- Smooth purple glow around card — wide, pulsating -->
  <g mask="url(#glowMask)" class="cardGlow">
    <rect x="110" y="178" width="383" height="310" rx="50" fill="#846eff" opacity="0.015"/>
    <rect x="118" y="186" width="367" height="294" rx="44" fill="#846eff" opacity="0.02"/>
    <rect x="124" y="192" width="355" height="282" rx="40" fill="#846eff" opacity="0.03"/>
    <rect x="130" y="198" width="343" height="270" rx="38" fill="#846eff" opacity="0.04"/>
    <rect x="137" y="205" width="329" height="256" rx="34" fill="#846eff" opacity="0.05"/>
    <rect x="144" y="212" width="315" height="242" rx="30" fill="#846eff" opacity="0.06"/>
    <rect x="148" y="216" width="307" height="234" rx="26" fill="#846eff" opacity="0.07"/>
    <rect x="152" y="220" width="299" height="226" rx="24" fill="#846eff" opacity="0.08"/>
    <rect x="156" y="224" width="291" height="218" rx="22" fill="#846eff" opacity="0.10"/>
    <rect x="160" y="228" width="283" height="210" rx="20" fill="#846eff" opacity="0.12"/>
    <rect x="163" y="231" width="277" height="204" rx="18" fill="#846eff" opacity="0.14"/>
    <rect x="166" y="234" width="271" height="198" rx="16" fill="#846eff" opacity="0.17"/>
    <rect x="169" y="237" width="265" height="192" rx="14" fill="#846eff" opacity="0.21"/>
    <rect x="172" y="240" width="259" height="186" rx="13" fill="#846eff" opacity="0.26"/>
  </g>

  <!-- Card outline -->
  <g class="wire d" stroke-width="3">
    <rect x="175" y="243" width="253" height="180" rx="12"/>
  </g>

  <!-- Top accent bar — colored header strip -->
  <rect x="175" y="243" width="253" height="28" rx="12" fill="#846eff" opacity="0.55" stroke="none"/>
  <rect x="175" y="258" width="253" height="13" fill="#846eff" opacity="0.55" stroke="none"/>
  <!-- Dots in header (window controls feel) -->
  <circle cx="195" cy="257" r="4" fill="#fff" opacity="0.5"/>
  <circle cx="210" cy="257" r="4" fill="#fff" opacity="0.5"/>
  <circle cx="225" cy="257" r="4" fill="#fff" opacity="0.5"/>

  <!-- Headline -->
  <rect x="200" y="285" width="170" height="10" rx="5" stroke="none" fill="#444" opacity="0.75"/>
  <rect x="200" y="301" width="110" height="7" rx="3.5" stroke="none" fill="#999" opacity="0.4"/>

  <!-- Body text bars -->
  <rect x="200" y="322" width="195" height="7" rx="3.5" stroke="none" fill="#bbb" opacity="0.5"/>
  <rect x="200" y="337" width="180" height="7" rx="3.5" stroke="none" fill="#bbb" opacity="0.5"/>
  <rect x="200" y="352" width="190" height="7" rx="3.5" stroke="none" fill="#bbb" opacity="0.5"/>

  <!-- Inline image placeholder — with landscape silhouette -->
  <rect x="200" y="370" width="210" height="40" rx="5" stroke="none" fill="#e8e0ff" opacity="0.5"/>
  <polygon points="215,402 235,378 255,395 275,380 310,400 200,402" fill="#846eff" opacity="0.15" stroke="none"/>
  <circle cx="380" cy="382" r="7" fill="#846eff" opacity="0.12" stroke="none"/>


  <!-- Stars and hearts alternating around the content card — no overlaps -->
  <!-- Top-left: star -->
  <g class="p1">
    <polygon points="120,215 124,225 133,225 126,230 128,239 120,234 112,239 114,230 107,225 116,225"
             class="wire g" stroke-width="2.5"/>
  </g>
  <!-- Top-center: heart -->
  <g stroke="#c9394a" fill="#c9394a" fill-opacity="0.3" stroke-width="3" stroke-linecap="round" stroke-linejoin="round">
    <path d="M255,195 C251,189 242,189 242,196 C242,203 255,213 255,213 C255,213 268,203 268,196 C268,189 259,189 255,195 Z" class="b b5"/>
  </g>
  <!-- Top-right: star -->
  <g class="p3">
    <polygon points="483,218 487,228 496,228 489,233 491,242 483,237 475,242 477,233 470,228 479,228"
             class="wire g" stroke-width="2.5"/>
  </g>
  <!-- Left-upper: heart -->
  <g stroke="#c9394a" fill="#c9394a" fill-opacity="0.3" stroke-width="3" stroke-linecap="round" stroke-linejoin="round">
    <path d="M105,290 C101,284 92,284 92,291 C92,298 105,308 105,308 C105,308 118,298 118,291 C118,284 109,284 105,290 Z" class="b b1"/>
  </g>
  <!-- Right-upper: star -->
  <g class="p2">
    <polygon points="500,300 504,310 513,310 506,315 508,324 500,319 492,324 494,315 487,310 496,310"
             class="wire g" stroke-width="2"/>
  </g>
  <!-- Left-lower: star -->
  <g class="p3">
    <polygon points="90,370 94,380 103,380 96,385 98,394 90,389 82,394 84,385 77,380 86,380"
             class="wire g" stroke-width="2"/>
  </g>
  <!-- Right-lower: heart -->
  <g stroke="#c9394a" fill="#c9394a" fill-opacity="0.3" stroke-width="3" stroke-linecap="round" stroke-linejoin="round">
    <path d="M505,375 C501,369 492,369 492,376 C492,383 505,393 505,393 C505,393 518,383 518,376 C518,369 509,369 505,375 Z" class="b b4"/>
  </g>
  <!-- Bottom-left: heart -->
  <g stroke="#c9394a" fill="#c9394a" fill-opacity="0.3" stroke-width="3" stroke-linecap="round" stroke-linejoin="round">
    <path d="M115,455 C111,449 102,449 102,456 C102,463 115,473 115,473 C115,473 128,463 128,456 C128,449 119,449 115,455 Z" class="b b3"/>
  </g>
  <!-- Bottom-center: star -->
  <g class="p1">
    <polygon points="350,465 354,475 363,475 356,480 358,489 350,484 342,489 344,480 337,475 346,475"
             class="wire g" stroke-width="2"/>
  </g>
  <!-- Bottom-right: star -->
  <g class="p2">
    <polygon points="490,450 495,463 509,463 498,472 502,485 490,476 478,485 482,472 471,463 485,463"
             class="wire g" stroke-width="2.5"/>
  </g>

  <!-- Additional fills around the content -->
  <!-- Top between left-star and center-heart: small star -->
  <g class="p2">
    <polygon points="180,198 183,205 190,205 184,209 186,216 180,212 174,216 176,209 170,205 177,205"
             class="wire g" stroke-width="1.5"/>
  </g>
  <!-- Top between center-heart and right-star: small heart -->
  <g stroke="#c9394a" fill="#c9394a" fill-opacity="0.3" stroke-width="2.5" stroke-linecap="round" stroke-linejoin="round">
    <path d="M390,200 C387,195 380,195 380,200 C380,205 390,213 390,213 C390,213 400,205 400,200 C400,195 393,195 390,200 Z" class="b b2"/>
  </g>
  <!-- Left mid between upper-heart and lower-star: small star -->
  <g class="p1">
    <polygon points="85,332 88,339 95,339 89,343 91,350 85,346 79,350 81,343 75,339 82,339"
             class="wire g" stroke-width="1.5"/>
  </g>
  <!-- Right mid between upper-star and lower-heart: small heart -->
  <g stroke="#c9394a" fill="#c9394a" fill-opacity="0.3" stroke-width="2.5" stroke-linecap="round" stroke-linejoin="round">
    <path d="M515,338 C512,333 505,333 505,338 C505,343 515,351 515,351 C515,351 525,343 525,338 C525,333 518,333 515,338 Z" class="b b6"/>
  </g>
  <!-- Left between lower-star and bottom-heart: small heart -->
  <g stroke="#c9394a" fill="#c9394a" fill-opacity="0.3" stroke-width="2.5" stroke-linecap="round" stroke-linejoin="round">
    <path d="M100,418 C97,413 90,413 90,418 C90,423 100,431 100,431 C100,431 110,423 110,418 C110,413 103,413 100,418 Z" class="b b5"/>
  </g>
  <!-- Right between lower-heart and bottom-star: small star -->
  <g class="p3">
    <polygon points="510,420 513,427 520,427 514,431 516,438 510,434 504,438 506,431 500,427 507,427"
             class="wire g" stroke-width="1.5"/>
  </g>
  <!-- Bottom-center-left: small star -->
  <g class="p3">
    <polygon points="215,470 218,477 225,477 219,481 221,488 215,484 209,488 211,481 205,477 212,477"
             class="wire g" stroke-width="1.5"/>
  </g>
  <!-- Bottom-center-right: small heart -->
  <g stroke="#c9394a" fill="#c9394a" fill-opacity="0.3" stroke-width="2.5" stroke-linecap="round" stroke-linejoin="round">
    <path d="M440,475 C437,470 430,470 430,475 C430,480 440,488 440,488 C440,488 450,480 450,475 C450,470 443,470 440,475 Z" class="b b1"/>
  </g>

  <!-- ======================================== -->
  <!--  THE CROWD — enthusiastic, reaching up   -->
  <!-- ======================================== -->

  <!-- Row 1 (front) — most energized, arms up toward the content/gift -->

  <!-- Far left person -->
  <g class="wire d" stroke-width="3">
    <circle cx="72" cy="555" r="16"/>
    <circle cx="67" cy="553" r="2.5" fill="#666" stroke="none"/>
    <circle cx="77" cy="553" r="2.5" fill="#666" stroke="none"/>
    <path d="M67,561 Q72,567 77,561"/>
    <line x1="72" y1="571" x2="72" y2="623"/>
    <path d="M72,583 Q52,555 42,535"/>
    <path d="M72,583 Q92,558 102,540"/>
    <line x1="72" y1="623" x2="58" y2="657"/>
    <line x1="72" y1="623" x2="86" y2="657"/>
  </g>
  <g class="wire p" stroke-width="1.5">
    <line x1="35" y1="528" x2="27" y2="518" class="b b4"/>
  </g>

  <!-- Person 1 — arms way up -->
  <g class="wire d" stroke-width="3">
    <circle cx="145" cy="540" r="18"/>
    <circle cx="139" cy="538" r="2.5" fill="#666" stroke="none"/>
    <circle cx="151" cy="538" r="2.5" fill="#666" stroke="none"/>
    <path d="M138,547 Q145,555 152,547"/>
    <line x1="145" y1="558" x2="145" y2="615"/>
    <path d="M145,570 Q120,540 110,518"/>
    <path d="M145,570 Q170,540 180,518"/>
    <line x1="145" y1="615" x2="130" y2="650"/>
    <line x1="145" y1="615" x2="160" y2="650"/>
  </g>
  <g class="wire p" stroke-width="1.5">
    <line x1="102" y1="510" x2="94" y2="500" class="b"/>
    <line x1="188" y1="510" x2="196" y2="500" class="b b2"/>
  </g>

  <!-- Person 2 — one arm up, one waving -->
  <g class="wire d" stroke-width="3">
    <circle cx="240" cy="545" r="18"/>
    <circle cx="234" cy="543" r="2.5" fill="#666" stroke="none"/>
    <circle cx="246" cy="543" r="2.5" fill="#666" stroke="none"/>
    <path d="M233,552 Q240,559 247,552"/>
    <line x1="240" y1="563" x2="240" y2="620"/>
    <path d="M240,575 Q215,548 205,528"/>
    <path d="M240,575 Q260,585 275,600"/>
    <line x1="240" y1="620" x2="225" y2="655"/>
    <line x1="240" y1="620" x2="255" y2="655"/>
  </g>
  <g class="wire p" stroke-width="1.5">
    <line x1="198" y1="520" x2="190" y2="510" class="b b1"/>
  </g>

  <!-- Person 3 — center front, biggest, both arms V -->
  <g class="wire d" stroke-width="3">
    <circle cx="335" cy="535" r="20"/>
    <circle cx="328" cy="532" r="3" fill="#666" stroke="none"/>
    <circle cx="342" cy="532" r="3" fill="#666" stroke="none"/>
    <path d="M326,543 Q335,553 344,543"/>
    <line x1="335" y1="555" x2="335" y2="615"/>
    <path d="M335,567 Q310,535 295,510"/>
    <path d="M335,567 Q360,535 375,510"/>
    <line x1="335" y1="615" x2="318" y2="653"/>
    <line x1="335" y1="615" x2="352" y2="653"/>
  </g>
  <g class="wire p" stroke-width="1.5">
    <line x1="287" y1="503" x2="278" y2="490" class="b b3"/>
    <line x1="383" y1="503" x2="392" y2="490" class="b b4"/>
    <line x1="335" y1="505" x2="335" y2="490" class="b b1"/>
  </g>

  <!-- Person 4 — one arm reaching up -->
  <g class="wire d" stroke-width="3">
    <circle cx="420" cy="543" r="18"/>
    <circle cx="414" cy="541" r="2.5" fill="#666" stroke="none"/>
    <circle cx="426" cy="541" r="2.5" fill="#666" stroke="none"/>
    <path d="M413,550 Q420,557 427,550"/>
    <line x1="420" y1="561" x2="420" y2="618"/>
    <path d="M420,573 Q445,545 458,523"/>
    <path d="M420,573 Q395,590 385,607"/>
    <line x1="420" y1="618" x2="405" y2="655"/>
    <line x1="420" y1="618" x2="435" y2="655"/>
  </g>
  <g class="wire p" stroke-width="1.5">
    <line x1="465" y1="515" x2="474" y2="505" class="b b5"/>
  </g>

  <!-- Person 5 — far right, both arms up -->
  <g class="wire d" stroke-width="3">
    <circle cx="510" cy="550" r="17"/>
    <circle cx="504" cy="548" r="2.5" fill="#666" stroke="none"/>
    <circle cx="516" cy="548" r="2.5" fill="#666" stroke="none"/>
    <path d="M504,557 Q510,563 516,557"/>
    <line x1="510" y1="567" x2="510" y2="620"/>
    <path d="M510,579 Q490,553 480,535"/>
    <path d="M510,579 Q530,553 540,535"/>
    <line x1="510" y1="620" x2="496" y2="655"/>
    <line x1="510" y1="620" x2="524" y2="655"/>
  </g>
  <g class="wire p" stroke-width="1.5">
    <line x1="472" y1="528" x2="464" y2="518" class="b b6"/>
    <line x1="548" y1="528" x2="556" y2="518" class="b b3"/>
  </g>

  <!-- Additional far-right person -->
  <g class="wire d" stroke-width="3">
    <circle cx="545" cy="558" r="16"/>
    <circle cx="540" cy="556" r="2.5" fill="#666" stroke="none"/>
    <circle cx="550" cy="556" r="2.5" fill="#666" stroke="none"/>
    <path d="M540,564 Q545,570 550,564"/>
    <line x1="545" y1="574" x2="545" y2="625"/>
    <path d="M545,586 Q565,560 575,543"/>
    <path d="M545,586 Q525,560 515,545"/>
    <line x1="545" y1="625" x2="532" y2="658"/>
    <line x1="545" y1="625" x2="558" y2="658"/>
  </g>

  <!-- ======================================== -->
  <!--  Row 2 — behind, slightly faded          -->
  <!-- ======================================== -->
  <g class="wire d" stroke-width="2.5" opacity="0.75">
    <!-- Person A — low left -->
    <circle cx="45" cy="700" r="15"/>
    <circle cx="40" cy="698" r="2" fill="#666" stroke="none"/>
    <circle cx="50" cy="698" r="2" fill="#666" stroke="none"/>
    <path d="M40,706 Q45,712 50,706"/>
    <line x1="45" y1="715" x2="45" y2="763"/>
    <path d="M45,725 Q25,703 17,687"/>
    <path d="M45,725 Q65,703 75,690"/>
    <line x1="45" y1="763" x2="33" y2="795"/>
    <line x1="45" y1="763" x2="57" y2="795"/>

    <!-- Person B — high -->
    <circle cx="155" cy="665" r="15"/>
    <circle cx="150" cy="663" r="2" fill="#666" stroke="none"/>
    <circle cx="160" cy="663" r="2" fill="#666" stroke="none"/>
    <path d="M150,671 Q155,677 160,671"/>
    <line x1="155" y1="680" x2="155" y2="728"/>
    <path d="M155,690 Q135,668 127,652"/>
    <path d="M155,690 Q175,673 188,662"/>
    <line x1="155" y1="728" x2="142" y2="760"/>
    <line x1="155" y1="728" x2="168" y2="760"/>

    <!-- Person C — lower -->
    <circle cx="240" cy="698" r="15"/>
    <circle cx="235" cy="696" r="2" fill="#666" stroke="none"/>
    <circle cx="245" cy="696" r="2" fill="#666" stroke="none"/>
    <path d="M235,704 Q240,710 245,704"/>
    <line x1="240" y1="713" x2="240" y2="761"/>
    <path d="M240,723 Q220,701 212,685"/>
    <path d="M240,723 Q260,701 272,688"/>
    <line x1="240" y1="761" x2="227" y2="793"/>
    <line x1="240" y1="761" x2="253" y2="793"/>

    <!-- Person D — high center -->
    <circle cx="330" cy="668" r="15"/>
    <circle cx="325" cy="666" r="2" fill="#666" stroke="none"/>
    <circle cx="335" cy="666" r="2" fill="#666" stroke="none"/>
    <path d="M325,674 Q330,680 335,674"/>
    <line x1="330" y1="683" x2="330" y2="731"/>
    <path d="M330,693 Q310,671 302,655"/>
    <path d="M330,693 Q350,671 362,658"/>
    <line x1="330" y1="731" x2="317" y2="763"/>
    <line x1="330" y1="731" x2="343" y2="763"/>

    <!-- Person E — lower right -->
    <circle cx="440" cy="695" r="15"/>
    <circle cx="435" cy="693" r="2" fill="#666" stroke="none"/>
    <circle cx="445" cy="693" r="2" fill="#666" stroke="none"/>
    <path d="M435,701 Q440,707 445,701"/>
    <line x1="440" y1="710" x2="440" y2="758"/>
    <path d="M440,720 Q420,698 412,682"/>
    <path d="M440,720 Q460,698 472,685"/>
    <line x1="440" y1="758" x2="427" y2="790"/>
    <line x1="440" y1="758" x2="453" y2="790"/>

    <!-- Person F — high right -->
    <circle cx="530" cy="672" r="15"/>
    <circle cx="525" cy="670" r="2" fill="#666" stroke="none"/>
    <circle cx="535" cy="670" r="2" fill="#666" stroke="none"/>
    <path d="M525,678 Q530,684 535,678"/>
    <line x1="530" y1="687" x2="530" y2="735"/>
    <path d="M530,697 Q510,675 502,659"/>
    <path d="M530,697 Q550,675 562,662"/>
    <line x1="530" y1="735" x2="517" y2="767"/>
    <line x1="530" y1="735" x2="543" y2="767"/>

    <!-- Person G — far right, lower -->
    <circle cx="575" cy="705" r="14"/>
    <circle cx="570" cy="703" r="2" fill="#666" stroke="none"/>
    <circle cx="580" cy="703" r="2" fill="#666" stroke="none"/>
    <path d="M570,710 Q575,716 580,710"/>
    <line x1="575" y1="719" x2="575" y2="765"/>
    <path d="M575,729 Q557,709 550,695"/>
    <path d="M575,729 Q593,709 600,698"/>
    <line x1="575" y1="765" x2="563" y2="795"/>
    <line x1="575" y1="765" x2="587" y2="795"/>

    <!-- Person H — between A and B -->
    <circle cx="100" cy="690" r="14"/>
    <circle cx="95" cy="688" r="2" fill="#666" stroke="none"/>
    <circle cx="105" cy="688" r="2" fill="#666" stroke="none"/>
    <path d="M95,695 Q100,701 105,695"/>
    <line x1="100" y1="704" x2="100" y2="750"/>
    <path d="M100,714 Q80,692 72,678"/>
    <path d="M100,714 Q120,694 130,682"/>
    <line x1="100" y1="750" x2="88" y2="782"/>
    <line x1="100" y1="750" x2="112" y2="782"/>

    <!-- Person I — between D and E -->
    <circle cx="385" cy="685" r="14"/>
    <circle cx="380" cy="683" r="2" fill="#666" stroke="none"/>
    <circle cx="390" cy="683" r="2" fill="#666" stroke="none"/>
    <path d="M380,691 Q385,697 390,691"/>
    <line x1="385" y1="699" x2="385" y2="747"/>
    <path d="M385,709 Q365,687 357,673"/>
    <path d="M385,709 Q405,689 415,676"/>
    <line x1="385" y1="747" x2="373" y2="779"/>
    <line x1="385" y1="747" x2="397" y2="779"/>

    <!-- Person J — between C and D, lower -->
    <circle cx="288" cy="705" r="13"/>
    <circle cx="283" cy="703" r="2" fill="#666" stroke="none"/>
    <circle cx="293" cy="703" r="2" fill="#666" stroke="none"/>
    <path d="M283,710 Q288,716 293,710"/>
    <line x1="288" y1="718" x2="288" y2="762"/>
    <path d="M288,728 Q270,708 263,694"/>
    <path d="M288,728 Q306,708 315,697"/>
    <line x1="288" y1="762" x2="276" y2="792"/>
    <line x1="288" y1="762" x2="300" y2="792"/>

    <!-- Person K — between E and F -->
    <circle cx="488" cy="702" r="13"/>
    <circle cx="483" cy="700" r="2" fill="#666" stroke="none"/>
    <circle cx="493" cy="700" r="2" fill="#666" stroke="none"/>
    <path d="M483,707 Q488,713 493,707"/>
    <line x1="488" y1="715" x2="488" y2="759"/>
    <path d="M488,725 Q470,705 463,691"/>
    <path d="M488,725 Q506,705 515,694"/>
    <line x1="488" y1="759" x2="476" y2="789"/>
    <line x1="488" y1="759" x2="500" y2="789"/>

    <!-- Person L — far left high -->
    <circle cx="195" cy="708" r="13"/>
    <circle cx="190" cy="706" r="2" fill="#666" stroke="none"/>
    <circle cx="200" cy="706" r="2" fill="#666" stroke="none"/>
    <path d="M190,713 Q195,719 200,713"/>
    <line x1="195" y1="721" x2="195" y2="765"/>
    <path d="M195,731 Q177,711 170,697"/>
    <path d="M195,731 Q213,711 222,700"/>
    <line x1="195" y1="765" x2="183" y2="795"/>
    <line x1="195" y1="765" x2="207" y2="795"/>
  </g>

  <!-- ======================================== -->
  <!--  Row 3 — deeper, fading more             -->
  <!-- ======================================== -->
  <g class="wire d" stroke-width="1.5" opacity="0.4">
    <circle cx="42" cy="788" r="13"/>
    <circle cx="38" cy="786" r="1.5" fill="#555" stroke="none"/>
    <circle cx="46" cy="786" r="1.5" fill="#555" stroke="none"/>
    <path d="M38,793 Q42,798 46,793"/>
    <line x1="42" y1="801" x2="42" y2="838"/>
    <path d="M42,811 Q24,791 17,778"/>
    <path d="M42,811 Q60,791 67,778"/>

    <circle cx="115" cy="792" r="13"/>
    <circle cx="111" cy="790" r="1.5" fill="#555" stroke="none"/>
    <circle cx="119" cy="790" r="1.5" fill="#555" stroke="none"/>
    <path d="M111,797 Q115,802 119,797"/>
    <line x1="115" y1="805" x2="115" y2="842"/>
    <path d="M115,815 Q97,795 90,782"/>
    <path d="M115,815 Q133,795 140,782"/>

    <circle cx="188" cy="795" r="13"/>
    <circle cx="184" cy="793" r="1.5" fill="#555" stroke="none"/>
    <circle cx="192" cy="793" r="1.5" fill="#555" stroke="none"/>
    <path d="M184,800 Q188,805 192,800"/>
    <line x1="188" y1="808" x2="188" y2="845"/>
    <path d="M188,818 Q170,798 163,785"/>
    <path d="M188,818 Q206,798 213,785"/>

    <circle cx="261" cy="797" r="13"/>
    <circle cx="257" cy="795" r="1.5" fill="#555" stroke="none"/>
    <circle cx="265" cy="795" r="1.5" fill="#555" stroke="none"/>
    <path d="M257,802 Q261,807 265,802"/>
    <line x1="261" y1="810" x2="261" y2="847"/>
    <path d="M261,820 Q243,800 236,787"/>
    <path d="M261,820 Q279,800 286,787"/>

    <circle cx="334" cy="798" r="13"/>
    <circle cx="330" cy="796" r="1.5" fill="#555" stroke="none"/>
    <circle cx="338" cy="796" r="1.5" fill="#555" stroke="none"/>
    <path d="M330,803 Q334,808 338,803"/>
    <line x1="334" y1="811" x2="334" y2="848"/>
    <path d="M334,821 Q316,801 309,788"/>
    <path d="M334,821 Q352,801 359,788"/>

    <circle cx="407" cy="796" r="13"/>
    <circle cx="403" cy="794" r="1.5" fill="#555" stroke="none"/>
    <circle cx="411" cy="794" r="1.5" fill="#555" stroke="none"/>
    <path d="M403,801 Q407,806 411,801"/>
    <line x1="407" y1="809" x2="407" y2="846"/>
    <path d="M407,819 Q389,799 382,786"/>
    <path d="M407,819 Q425,799 432,786"/>

    <circle cx="480" cy="793" r="13"/>
    <circle cx="476" cy="791" r="1.5" fill="#555" stroke="none"/>
    <circle cx="484" cy="791" r="1.5" fill="#555" stroke="none"/>
    <path d="M476,798 Q480,803 484,798"/>
    <line x1="480" y1="806" x2="480" y2="843"/>
    <path d="M480,816 Q462,796 455,783"/>
    <path d="M480,816 Q498,796 505,783"/>

    <circle cx="553" cy="790" r="13"/>
    <circle cx="549" cy="788" r="1.5" fill="#555" stroke="none"/>
    <circle cx="557" cy="788" r="1.5" fill="#555" stroke="none"/>
    <path d="M549,795 Q553,800 557,795"/>
    <line x1="553" y1="803" x2="553" y2="840"/>
    <path d="M553,813 Q535,793 528,780"/>
    <path d="M553,813 Q571,793 578,780"/>

    <!-- Extra row 3 people in between -->
    <circle cx="150" cy="800" r="12"/>
    <circle cx="146" cy="798" r="1.5" fill="#555" stroke="none"/>
    <circle cx="154" cy="798" r="1.5" fill="#555" stroke="none"/>
    <path d="M146,805 Q150,810 154,805"/>
    <line x1="150" y1="812" x2="150" y2="845"/>
    <path d="M150,822 Q134,804 128,792"/>
    <path d="M150,822 Q166,804 172,792"/>

    <circle cx="225" cy="803" r="12"/>
    <circle cx="221" cy="801" r="1.5" fill="#555" stroke="none"/>
    <circle cx="229" cy="801" r="1.5" fill="#555" stroke="none"/>
    <path d="M221,808 Q225,813 229,808"/>
    <line x1="225" y1="815" x2="225" y2="848"/>
    <path d="M225,825 Q209,807 203,795"/>
    <path d="M225,825 Q241,807 247,795"/>

    <circle cx="300" cy="805" r="12"/>
    <circle cx="296" cy="803" r="1.5" fill="#555" stroke="none"/>
    <circle cx="304" cy="803" r="1.5" fill="#555" stroke="none"/>
    <path d="M296,810 Q300,815 304,810"/>
    <line x1="300" y1="817" x2="300" y2="850"/>
    <path d="M300,827 Q284,809 278,797"/>
    <path d="M300,827 Q316,809 322,797"/>

    <circle cx="440" cy="800" r="12"/>
    <circle cx="436" cy="798" r="1.5" fill="#555" stroke="none"/>
    <circle cx="444" cy="798" r="1.5" fill="#555" stroke="none"/>
    <path d="M436,805 Q440,810 444,805"/>
    <line x1="440" y1="812" x2="440" y2="845"/>
    <path d="M440,822 Q424,804 418,792"/>
    <path d="M440,822 Q456,804 462,792"/>

    <circle cx="515" cy="796" r="12"/>
    <circle cx="511" cy="794" r="1.5" fill="#555" stroke="none"/>
    <circle cx="519" cy="794" r="1.5" fill="#555" stroke="none"/>
    <path d="M511,801 Q515,806 519,801"/>
    <line x1="515" y1="808" x2="515" y2="841"/>
    <path d="M515,818 Q499,800 493,788"/>
    <path d="M515,818 Q531,800 537,788"/>
  </g>




</svg>
